# xmcd CD Database Entry
#
# Track frame offsets:
# 183
# 33283
# 56520
# 145120
# 190333
# 225495
# 251408
# 283683
#
# Disc length: 4138 seconds
#
# Revision: 2
# Processed by: cddbd v1.4PL0 Copyright (c) Steve Scherf et al.
# Submitted via: tcd 2.0b
#
DISCID=68102808
DTITLE=Tsai Hsiao-Yüeh - Nan-Kouan T 3
DYEAR=1900
DGENRE=
TTITLE0=Siù-tsâi suï"-kia" (Jeune bachelier, passez devant)
TTITLE1=Bô-chhu se-soah (Sans abris)
TTITLE2=Hôe-siong tong-jit (je pense au jour)
TTITLE3=In-sâng ko-so (En accompagnant mon frère)
TTITLE4=Am-siu" amm-chhai (Pensées secrètes)
TTITLE5=U-iên chhüi-li (Unis par le destin)
TTITLE6=Ko-se-bun (Seule, triste et abattue)
TTITLE7=Siu-siâ" ko-loân (Le phénix solitaire)
EXTD=Chants courtois de la Chine du sud
EXTT0=
EXTT1=
EXTT2=
EXTT3=
EXTT4=
EXTT5=
EXTT6=
EXTT7=
PLAYORDER=
